# xmcd CD database file
#
# Track frame offsets:
#	150
#	21297
#	38568
#	55438
#	70265
#	92411
#	105212
#	121684
#	138761
#	153773
#	171771
#	187965
#	208143
#	214927
#	230931
#	246063
#	266175
#	290292
#	305321
#	328573
#
# Disc length: 4576 seconds
#
# Revision: 0
# Processed by: cddbd v1.5.1PL0 Copyright (c) Steve Scherf et al.
# Submitted via: CdAid (MTCDDB.DLL V2003.12.21)
#
DISCID=1311de14
DTITLE=Various Artist - Be My Love - 40 Timeless Love Songs - Disc 2
DYEAR=2005
DGENRE=Ballad
TTITLE0=Il Divo - Unbreak My Heart (Regresa A Mi)
TTITLE1=Lesley Garrett - With A Song In My Heart
TTITLE2=Katherine Jenkins - Time To Say Goodbye
TTITLE3=Mario Lanza - Arrivederci Roma
TTITLE4=Luciano Pavarotti - Core n'grato
TTITLE5=Renée Fleming - O mio babbino caro
TTITLE6=Bryn Terfel - Plaisir d'amour
TTITLE7=Amici Forever - Senza Catene (Unchained Melody)
TTITLE8=Harry Secombe - This Is My Song
TTITLE9=Mantovani - Love Is A Many Splendoured Thing
TTITLE10=Prague Philharmonia - Somewhere My Love
TTITLE11=Russel Watson - Nella Fantasia
TTITLE12=Luciano Pavarotti - Santa Lucia
TTITLE13=Plácido Domingo - Dein ist mein ganzes Herz (You Are My Heart's Delig
TTITLE13=ht)
TTITLE14=Andrea Bocelli - La serenata
TTITLE15=José Carreras - Torna a surriento
TTITLE16=Michael Ball - Music of the Night
TTITLE17=Tito Beltràn - The Loveliest Night of the Year
TTITLE18=Lesley Garrett - Vilja
TTITLE19=Ute Lemper - La vie en rose
EXTD=ID3G: 116 YEAR: 2005
EXTT0=
EXTT1=
EXTT2=
EXTT3=
EXTT4=
EXTT5=
EXTT6=
EXTT7=
EXTT8=
EXTT9=
EXTT10=
EXTT11=
EXTT12=
EXTT13=
EXTT14=
EXTT15=
EXTT16=
EXTT17=
EXTT18=
EXTT19=
PLAYORDER=
